<svg id="Layer_1_1_" enable-background="new 0 0 64 64" height="512" viewBox="0 0 64 64" width="512" xmlns="http://www.w3.org/2000/svg"><path d="m5 31h30v4h-30z" fill="#904c2a"/><g fill="#deac21"><path d="m3 35c0 3.314 2.686 6 6 6h22c3.314 0 6-2.686 6-6h-2-30z"/><path d="m57.504 28.031-15.332-15.778c-2.309-2.376-6.108-2.431-8.484-.122l23.695 24.383c2.376-2.308 2.43-6.107.121-8.483z"/><path d="m46.029 39.181c2.309 2.376 6.108 2.431 8.484.121l-23.694-24.382c-2.376 2.309-2.431 6.108-.121 8.484z"/></g><path d="m42.1 10.717h4v30h-4z" fill="#904c2a" transform="matrix(.717 -.697 .697 .717 -5.449 38.009)"/><path d="m46.897 37.192-15.933-16.382c-.923-.949-1.479-2.116-1.678-3.33-.614 2.022-.167 4.301 1.41 5.924l15.332 15.778c2.309 2.376 6.108 2.431 8.484.121l-.704-.725c-2.3.978-5.063.514-6.911-1.386z" fill="#cf9e16"/><path d="m35 35h-1c0 3.314-2.686 6-6 6h3c3.314 0 6-2.686 6-6z" fill="#cf9e16"/><path d="m35 35v-4c-2.605 1.954-5.743 3.067-8.996 3.192l-21.004.808z" fill="#804325"/><path d="m49.248 31.393-17.036-15.039 20.908 21.515 2.869-2.788c-2.494-.712-4.797-1.972-6.741-3.688z" fill="#804325"/><path d="m3.002 40c-.891 0-1.337 1.077-.707 1.707l2 2c.187.188.442.293.707.293h53.998c.265 0 .52-.105.707-.293l2-2c.63-.63.184-1.707-.707-1.707z" fill="#fee3d0"/><path d="m61.707 40.707-2 2c-.187.188-.442.293-.707.293h-53.998c-.265 0-.52-.105-.707-.293l-2-2c-.063-.063-.108-.133-.15-.204-.21.365-.202.852.15 1.204l2 2c.187.188.442.293.707.293h53.998c.265 0 .52-.105.707-.293l2-2c.352-.352.36-.839.15-1.204-.042.071-.087.141-.15.204z" fill="#fedcc4"/><path d="m37 31c0-3.314-2.686-6-6-6h-22c-3.314 0-6 2.686-6 6h2 30z" fill="#deac21"/><path d="m31 25h-3c3.314 0 6 2.686 6 6h1 2c0-3.314-2.686-6-6-6z" fill="#cf9e16"/></svg>